{"title":"Prince of Persia The Sands of Time 2010.CUSTOM.SWESUB.DVDRip.Xvi","uid":5770306,"size":1468485632,"categoryP":"video","categoryS":"movies","magnet":"?xt=urn:btih:34d0ef35e849a8acbb763b1f3c3f6142b2d4aa4d&amp;dn=Prince+of+Persia+The+Sands+of+Time+2010.CUSTOM.SWESUB.DVDRip.Xvi&amp;tr=udp%3A%2F%2Ftracker.openbittorrent.com%3A80&amp;tr=udp%3A%2F%2Fopen.demonii.com%3A1337&amp;tr=udp%3A%2F%2Ftracker.coppersurfer.tk%3A6969&amp;tr=udp%3A%2F%2Fexodus.desync.com%3A6969","seeders":1,"leechers":0,"uploader":"Zen_Bud","files":-1,"time":1282073628,"description":"General\nComplete name                    : Prince of Persia The Sands of Time 2010.avi\nFormat                           : AVI\n\nFile size                        : 1.37 GiB\nDuration                         : 1h 55mn\nOverall bit rate                 : 1 690 Kbps\n\nVideo\nFormat                           : MPEG-4 Visual\nCodec ID/Hint                    : XviD\nDuration                         : 1h 55mn\nBit rate                         : 1 234 Kbps\nWidth                            : 718 pixels\nHeight                           : 358 pixels\nDisplay aspect ratio             : 2.006\nStream size                      : 1 023 MiB (73%)\nWriting library                  : XviD 1.2.1 (UTC 2008-12-04)\n\nAudio\n\nFormat                           : AC-3\nDuration                         : 1h 55mn\nBit rate                         : 448 Kbps\nChannel(s)                       : 6 channels\nChannel positions                : Front: L C R, Side: L R, LFE\nSampling rate                    : 48.0 KHz\nStream size                      : 371 MiB (27%)\n\n\n","torrent":{"xt":"urn:btih:34d0ef35e849a8acbb763b1f3c3f6142b2d4aa4d","amp;dn":"Prince+of+Persia+The+Sands+of+Time+2010.CUSTOM.SWESUB.DVDRip.Xvi","amp;tr":["udp%3A%2F%2Ftracker.openbittorrent.com%3A80","udp%3A%2F%2Fopen.demonii.com%3A1337","udp%3A%2F%2Ftracker.coppersurfer.tk%3A6969","udp%3A%2F%2Fexodus.desync.com%3A6969"],"infoHash":"34d0ef35e849a8acbb763b1f3c3f6142b2d4aa4d","infoHashBuffer":{"type":"Buffer","data":[52,208,239,53,232,73,168,172,187,118,59,31,60,63,97,66,178,212,170,77]},"announce":[],"urlList":[]}}